Coordinates
version=1
nRows=14
nColumns=40
inDegrees=yes

Units are S.I. units (second, meters, Newtons, ...)
If the header above contains a line with 'inDegrees', this indicates whether rotational values are in degrees (yes) or radians (no).

endheader
time	pelvis_tilt	pelvis_list	pelvis_rotation	pelvis_tx	pelvis_ty	pelvis_tz	hip_flexion_r	hip_adduction_r	hip_rotation_r	knee_angle_r	knee_angle_r_beta	ankle_angle_r	subtalar_angle_r	mtp_angle_r	hip_flexion_l	hip_adduction_l	hip_rotation_l	knee_angle_l	knee_angle_l_beta	ankle_angle_l	subtalar_angle_l	mtp_angle_l	lumbar_extension	lumbar_bending	lumbar_rotation	arm_flex_r	arm_add_r	arm_rot_r	elbow_flex_r	pro_sup_r	wrist_flex_r	wrist_dev_r	arm_flex_l	arm_add_l	arm_rot_l	elbow_flex_l	pro_sup_l	wrist_flex_l	wrist_dev_l
      3.47500000	     -4.05880636	      4.15837228	      0.11325767	     -0.45563380	      0.72957161	     -0.79815180	     58.02796529	     -3.88196536	     -9.55301788	     86.12045108	      1.50308542	     26.13400281	      0.00000000	      0.00000000	     63.36243147	     -5.30826807	    -12.42407219	     24.88089794	      0.43425359	    -25.06674018	      0.00000000	      0.00000000	    -25.33191675	    -23.77893384	    -21.41600283	     83.16186636	    -11.35306568	     17.88295776	     51.44465064	     87.66922784	      0.00000000	      0.00000000	     89.96913539	     10.70271114	     23.32386407	     41.43068126	     29.69803468	      0.00000000	      0.00000000
      3.48000000	     -4.07690504	      4.18674090	      0.04068286	     -0.45596272	      0.72894600	     -0.79797642	     58.14211066	     -3.83399614	     -9.49174921	     86.22314769	      1.50487782	     26.14291110	      0.00000000	      0.00000000	     63.42058187	     -5.40281973	    -12.49105181	     24.91163906	      0.43479012	    -25.06048857	      0.00000000	      0.00000000	    -25.32332857	    -23.80984246	    -21.31205410	     83.21344162	    -11.35331771	     17.89095839	     51.40533614	     87.64909420	      0.00000000	      0.00000000	     89.96917604	     10.70783403	     23.30310880	     41.47344365	     29.21299874	      0.00000000	      0.00000000
      3.48500000	     -4.12363528	      4.22166666	      0.02268578	     -0.45632002	      0.72821542	     -0.79791078	     58.31230476	     -3.82523965	     -9.43639111	     86.35001210	      1.50709202	     26.19916945	      0.00000000	      0.00000000	     63.51186739	     -5.42515346	    -12.51036345	     24.90452439	      0.43466595	    -25.19279619	      0.00000000	      0.00000000	    -25.34534095	    -23.84250885	    -21.30081145	     83.28010802	    -11.37295056	     17.86137801	     51.41417452	     87.67520903	      0.00000000	      0.00000000	     89.96925309	     10.75731545	     23.15196690	     41.57652120	     29.07797756	      0.00000000	      0.00000000
      3.49000000	     -4.12408107	      4.29827997	      0.09856484	     -0.45670763	      0.72763970	     -0.79806457	     58.41346252	     -3.97439525	     -9.43252344	     86.48259908	      1.50940610	     26.20097964	      0.00000000	      0.00000000	     63.50064589	     -5.31283425	    -12.46675855	     24.76757151	      0.43227567	    -25.39256426	      0.00000000	      0.00000000	    -25.42573698	    -23.81962308	    -21.37332349	     83.37373275	    -11.40811440	     18.04360815	     51.43881443	     87.60383602	      0.00000000	      0.00000000	     89.96926956	     10.70404417	     23.13265782	     41.81942553	     27.54212097	      0.00000000	      0.00000000
      3.49500000	     -4.16358308	      4.27302792	      0.05278366	     -0.45706845	      0.72693824	     -0.79794040	     58.54432961	     -3.89979957	     -9.41368379	     86.57193428	      1.51096529	     26.27101124	      0.00000000	      0.00000000	     63.63094761	     -5.41640947	    -12.48558622	     24.89430165	      0.43448753	    -25.22995607	      0.00000000	      0.00000000	    -25.39803635	    -23.81381837	    -21.25686731	     83.39429047	    -11.38608306	     17.86827911	     51.34291054	     87.65848615	      0.00000000	      0.00000000	     89.96936552	     10.78923913	     23.04209070	     41.78157629	     27.34037728	      0.00000000	      0.00000000
      3.50000000	     -4.21668386	      4.25008957	      0.03425464	     -0.45740636	      0.72626492	     -0.79782315	     58.68050188	     -3.86091869	     -9.41911466	     86.66011528	      1.51250434	     26.34810018	      0.00000000	      0.00000000	     63.74098089	     -5.48307679	    -12.45088901	     24.93395734	      0.43517965	    -25.18093132	      0.00000000	      0.00000000	    -25.39829953	    -23.79955309	    -21.23874045	     83.43381022	    -11.35556380	     17.79993446	     51.34508090	     87.67822683	      0.00000000	      0.00000000	     89.96942357	     10.82512994	     22.79454021	     41.88607182	     27.10906558	      0.00000000	      0.00000000
      3.50500000	     -4.21428319	      4.26051595	      0.02928896	     -0.45780812	      0.72561578	     -0.79779856	     58.78644898	     -3.86584325	     -9.40744340	     86.75831562	      1.51421826	     26.26551188	      0.00000000	      0.00000000	     63.74600264	     -5.48636986	    -12.38647758	     24.80990723	      0.43301457	    -25.47628954	      0.00000000	      0.00000000	    -25.43991858	    -23.73192805	    -21.18281151	     83.57308186	    -11.50022253	     18.29504379	     51.42822782	     87.32057549	      0.00000000	      0.00000000	     89.96939312	     10.67999126	     23.02475377	     42.20998055	     26.91580296	      0.00000000	      0.00000000
      3.51000000	     -4.29115787	      4.28100860	     -0.01353464	     -0.45814642	      0.72479569	     -0.79766601	     58.98476900	     -3.84117097	     -9.37409200	     86.89700343	      1.51663882	     26.35599093	      0.00000000	      0.00000000	     63.92982513	     -5.56881397	    -12.37607738	     24.99368042	      0.43622202	    -25.22863366	      0.00000000	      0.00000000	    -25.38109336	    -23.81411784	    -21.12526040	     83.52705104	    -11.36753095	     17.76398105	     51.28564157	     87.65949079	      0.00000000	      0.00000000	     89.96954800	     10.84762800	     22.80325206	     42.02079038	     26.68514361	      0.00000000	      0.00000000
      3.51500000	     -4.30189003	      4.30513043	     -0.03084332	     -0.45847464	      0.72415554	     -0.79758312	     59.09683055	     -3.86385615	     -9.37938291	     87.02166395	      1.51881456	     26.32117271	      0.00000000	      0.00000000	     63.97101362	     -5.59681923	    -12.31535276	     24.96494805	      0.43572054	    -25.39883450	      0.00000000	      0.00000000	    -25.41751362	    -23.81446259	    -21.10684690	     83.60638755	    -11.39294049	     17.96393409	     51.30575859	     87.51998988	      0.00000000	      0.00000000	     89.96957124	     10.83270731	     22.74679321	     42.13506163	     26.44991321	      0.00000000	      0.00000000
      3.52000000	     -4.32208368	      4.27906620	     -0.05300085	     -0.45882077	      0.72354226	     -0.79753301	     59.19277693	     -3.80657715	     -9.36878228	     87.07829244	      1.51980291	     26.45844687	      0.00000000	      0.00000000	     64.05903918	     -5.67078565	    -12.33833411	     25.03981523	      0.43702722	    -25.28583467	      0.00000000	      0.00000000	    -25.44239224	    -23.79574346	    -21.04309687	     83.61867522	    -11.38422437	     17.78124925	     51.29091827	     87.67614161	      0.00000000	      0.00000000	     89.96966216	     10.93419597	     22.47576455	     42.17639889	     26.35188492	      0.00000000	      0.00000000
      3.52500000	     -4.33455836	      4.29226623	     -0.08018211	     -0.45918009	      0.72292122	     -0.79746091	     59.30088060	     -3.79692077	     -9.33098359	     87.17866335	      1.52155471	     26.47554568	      0.00000000	      0.00000000	     64.11982910	     -5.72064674	    -12.34912590	     25.07158521	      0.43758171	    -25.31090672	      0.00000000	      0.00000000	    -25.45676532	    -23.80276264	    -20.98736117	     83.65813435	    -11.37265848	     17.75170919	     51.25650135	     87.65781578	      0.00000000	      0.00000000	     89.96976208	     10.91044086	     22.58393812	     42.14885209	     27.87159585	      0.00000000	      0.00000000
      3.53000000	     -4.37368646	      4.33995918	     -0.09401501	     -0.45952016	      0.72222204	     -0.79740334	     59.45399570	     -3.81729367	     -9.29663655	     87.30302036	      1.52372515	     26.50876326	      0.00000000	      0.00000000	     64.20499418	     -5.74424890	    -12.38856080	     25.08426038	      0.43780293	    -25.41483521	      0.00000000	      0.00000000	    -25.46749929	    -23.83798947	    -20.96090310	     83.69366659	    -11.38618593	     17.74171085	     51.24660681	     87.65859996	      0.00000000	      0.00000000	     89.96975446	     10.97274492	     22.38764129	     42.18197601	     27.71455877	      0.00000000	      0.00000000
      3.53500000	     -4.39668676	      4.33823500	     -0.12874968	     -0.45981031	      0.72152039	     -0.79725165	     59.57251227	     -3.79439962	     -9.28611819	     87.41003543	      1.52559292	     26.54886126	      0.00000000	      0.00000000	     64.28904527	     -5.82003862	    -12.43532931	     25.13381049	      0.43866775	    -25.40323499	      0.00000000	      0.00000000	    -25.46330791	    -23.83341329	    -20.87944742	     83.72572794	    -11.38259521	     17.71224239	     51.22090598	     87.64567711	      0.00000000	      0.00000000	     89.96983548	     10.97390767	     22.37353249	     42.22992324	     27.59564626	      0.00000000	      0.00000000
      3.54000000	     -4.40888774	      4.31147884	     -0.15224837	     -0.46013086	      0.72089567	     -0.79714222	     59.67064633	     -3.72966449	     -9.27819103	     87.50119154	      1.52718389	     26.59623617	      0.00000000	      0.00000000	     64.35667931	     -5.88722191	    -12.42650162	     25.14613922	      0.43888292	    -25.43341964	      0.00000000	      0.00000000	    -25.47778147	    -23.81075602	    -20.84133192	     83.77492742	    -11.35601910	     17.69914137	     51.20812957	     87.67287653	      0.00000000	      0.00000000	     89.96986969	     10.98952393	     22.25715322	     42.26171670	     27.25435388	      0.00000000	      0.00000000
